<svg id="Capa_1" data-name="Capa 1" xmlns="http://www.w3.org/2000/svg" viewBox="0 0 1002 1002">
  <defs>
    <style>
      .cls-1 {
        fill: #383636;
        stroke: #444343;
      }

      .cls-1, .cls-2, .cls-3, .cls-4, .cls-5 {
        stroke-miterlimit: 10;
      }

      .cls-1, .cls-2 {
        stroke-width: 2px;
      }

      .cls-2, .cls-3, .cls-4, .cls-5 {
        fill: none;
      }

      .cls-2, .cls-4 {
        stroke: #a9a9a9;
      }

      .cls-3 {
        stroke: #d3d1d1;
      }

      .cls-4 {
        stroke-width: 3px;
      }

      .cls-5 {
        stroke: #e2e0e0;
        stroke-width: 0.5px;
      }
    </style>
  </defs>
  <title>asd</title>
  <rect class="cls-1" x="1" y="1" width="1000" height="1000"/>
  <g id="trastes">
    <path class="cls-2" d="M625.22,433.77l45.83,55.94" transform="translate(1 1)"/>
    <path class="cls-2" d="M568.77,456.9l47.46,56.94" transform="translate(1 1)"/>
    <path class="cls-2" d="M514.1,479.29l49.07,59" transform="translate(1 1)"/>
    <path class="cls-2" d="M462.66,500.69l49,60.48" transform="translate(1 1)"/>
    <path class="cls-2" d="M413.65,520.91l50.2,61.7" transform="translate(1 1)"/>
    <path class="cls-2" d="M366.59,540l51.3,63.22" transform="translate(1 1)"/>
    <path class="cls-2" d="M322.24,558l51.86,64.47" transform="translate(1 1)"/>
    <path class="cls-2" d="M279.14,574.89l53.5,66.55" transform="translate(1 1)"/>
    <path class="cls-2" d="M239.46,591.6l54.34,67.26" transform="translate(1 1)"/>
    <path class="cls-2" d="M201.93,607.82l54.34,67.25" transform="translate(1 1)"/>
    <path class="cls-2" d="M165.14,622.51l56.29,68.8" transform="translate(1 1)"/>
    <path class="cls-2" d="M130.4,636.61l57.81,69.59" transform="translate(1 1)"/>
    <path class="cls-2" d="M97.68,650.32l57.81,70.55" transform="translate(1 1)"/>
  </g>
  <path id="_6ta" data-name="6ta" class="cls-3" d="M66.35,671.05,691.43,412.71" transform="translate(1 1)"/>
  <path id="_5ta" data-name="5ta" class="cls-3" d="M75.51,682.28l622.93-261" transform="translate(1 1)"/>
  <path id="_4ta" data-name="4ta" class="cls-3" d="M85.79,694.88,706.05,430.64" transform="translate(1 1)"/>
  <path id="_3ra" data-name="3ra" class="cls-3" d="M96.67,708.22l617.21-268" transform="translate(1 1)"/>
  <path id="_2da" data-name="2da" class="cls-3" d="M107,720.87C721.9,449.92,721.77,449.92,721.77,449.92" transform="translate(1 1)"/>
  <path id="_1ra" data-name="1ra" class="cls-3" d="M115.9,731.69,728,457.58" transform="translate(1 1)"/>
  <g id="Cuerpo">
    <path id="Clavijero" class="cls-4" d="M870.61,311.36c-27.79,13.28-31.67,14.95-32.89,13.63-.85-.79-2.55-2.46-3.76-3.69-5.82-5.72-7.16-6.78-10.8-7.92-7-2.11-14.44.88-15.9,6.42-1.45,5.81,5.71,12.85,13.35,12.93,5.34.09,5.22.18-12.86,8.71l-14.32,6.69-1.82-2.55c-1.09-1.5-2.31-2.64-2.79-2.64s-1.58-1.23-2.55-2.73c-2.91-4.84-12.38-7.48-18.45-5.19-2.91,1.14-5.94,5.37-5.94,8.36,0,5.54,7.16,11,14.44,11,4.12,0,3.64.35-10.68,7.12-8.25,3.87-15,6.95-15.17,6.78-10.8-12-12.86-13.46-20.51-13.46-8.86,0-13.59,7.74-8.86,14.42,2.55,3.52,5.22,4.84,11.17,5.37l5.34.44-17,7.92c-9.35,4.31-17,8.53-17,9.23,0,1.76-5.83,10.65-8.13,12.5-1.7,1.4-.12,3.6,19.17,27.27l21,25.78,8.61-.27c4.61-.17,9.83.09,11.53.53,2.55.7,5,.09,15.78-4,7-2.73,15-5.89,18-7l5.21-2.2-1.82,2.73c-2.42,3.26-2.42,5.46-.24,9.33,3.52,6,14.56,8.44,20.75,4.57,5.22-3.25,5.34-7.74.25-15.13-3.28-4.66-4-6.42-2.92-7.13.85-.52,7.89-3.43,15.78-6.33,10.92-4.14,13.83-4.93,12.38-3.52-2.55,2.73-2.31,8.53.48,11.61,5,5.37,14.44,6.6,20,2.64a8.56,8.56,0,0,0,.6-13c-1.33-1.23-2.18-2.29-1.7-2.29s-.36-1.32-1.7-3l-2.54-3,16.38-6.24c9-3.44,16.62-6.25,17-6.25s-.24,1-1.34,2.2c-5.22,5.81,2.67,15.39,12.75,15.39,5.94,0,10.67-2.63,11.77-6.59.6-2.38-.25-4.4-3.64-9.77-2.43-3.69-4.13-6.95-3.77-7.3s15.42-6.16,33.13-12.93c36.29-13.9,36.29-13.9,37.5-24,1.46-11.35-5.46-31.58-14-41.08-13-14.43-37.14-27.89-52.19-29C902,296.22,901.8,296.31,870.61,311.36Zm.61,19.17c3.64,2.64,4.37,5.19,2.3,7.92-1,1.41-15.53,8.89-17.23,8.89-.49,0-2.91-2.73-5.58-6L846,335.28l7.88-3.6c4.37-2,9.35-3.7,10.92-3.7A13.79,13.79,0,0,1,871.22,330.53ZM839.91,346.9A60,60,0,0,1,844.4,353c0,.61-32.89,16.63-33.37,16.19-.13-.18-2.67-3-5.47-6.34-3.88-4.75-4.73-6.25-3.39-6.77.85-.44,8.13-3.87,16.14-7.74s15.17-7,15.77-7S837.36,343.73,839.91,346.9Zm-45.15,21.64c2.92,3.52,4.62,6.51,4,6.86s-7.77,4-15.78,7.83l-14.68,7.13L763,383.67c-4.85-6.16-5.1-6.77-3-7.65,1.09-.53,7.88-3.79,15-7.3s13.35-6.34,13.84-6.34S792,365.11,794.76,368.54ZM911,378.66c3,2.81,3.28,6.24.61,9-1.94,2.11-16,7.65-17.11,6.86s-9.95-11.52-9.71-11.61,4-1.58,8.61-3.34C903.5,375.75,907.62,375.49,911,378.66ZM748.65,385c1,1.32,3.4,4.22,5.22,6.51l3.4,4.14-4.13,1.84c-5.7,2.47-10.19,2.29-14.44-.79-5-3.69-4.61-6.6,1.33-10.82,2.8-1.85,5.34-3.34,5.83-3.34S747.56,383.58,748.65,385Zm127.18,5.9c1.45,1.67,3.64,4.39,5,6l2.31,2.9-17.35,6.77c-9.59,3.7-17.84,6.78-18.21,6.78-1.33,0-10.92-12.67-9.83-12.93.73-.18,8.38-3,17-6.34s16.39-6.16,17.23-6.16S874.49,389.21,875.83,390.89Zm-46,20.49a64,64,0,0,1,4.85,6.51c0,.62-31.19,13-32.52,13-.49,0-3.16-2.9-5.83-6.42l-5.09-6.33,16.62-6.34c9.1-3.52,16.63-6.42,16.75-6.42S827,408.13,829.84,411.38Zm-45.27,17.51c2.55,3.34,4.73,6.25,5,6.6.72,1.14-6.92,3.34-11.65,3.34-7.28,0-11.9-5.28-8.74-9.85,1.7-2.38,7.28-6,9.34-6C779.23,423,782,425.64,784.57,428.89Z" transform="translate(1 1)"/>
    <polygon id="Cuerpo-2" data-name="Cuerpo" class="cls-4" points="730.62 460.54 725.22 466.87 121.12 737.73 62.28 665.82 680.31 412.61 690.32 411.12 730.62 460.54"/>
  </g>
  <g id="sobreClavijero">
    <path class="cls-5" d="M696.88,409.51l65.76-28.73h0" transform="translate(1 1)"/>
    <path class="cls-5" d="M704.39,419.28l104-55.47" transform="translate(1 1)"/>
    <path class="cls-5" d="M711.57,428.17,852,340.53" transform="translate(1 1)"/>
    <path class="cls-5" d="M719.72,438.16l171.81-49.25" transform="translate(1 1)"/>
    <path class="cls-5" d="M728,448.36l115-42.27" transform="translate(1 1)"/>
    <path class="cls-5" d="M733.52,455.12l67.05-27.76" transform="translate(1 1)"/>
  </g>
</svg>
