<svg id="guitarBien" xmlns="http://www.w3.org/2000/svg" width="1002" height="1002" viewBox="0 0 1002 1002">
  <rect id="Rectangle_1" data-name="Rectangle 1" width="1000" height="1000" transform="translate(1 1)" fill="#383636" stroke="#444343" stroke-miterlimit="10" stroke-width="2"/>
  <g id="trastes">
    <path id="_1t" data-name="1t" d="M625.22,433.77l45.83,55.94" transform="translate(1 1)" fill="none" stroke="#a9a9a9" stroke-miterlimit="10" stroke-width="2"/>
    <path id="_2t" data-name="2t" d="M568.77,456.9l47.46,56.94" transform="translate(1 1)" fill="none" stroke="#a9a9a9" stroke-miterlimit="10" stroke-width="2"/>
    <path id="_3t" data-name="3t" d="M514.1,479.29l49.07,59" transform="translate(1 1)" fill="none" stroke="#a9a9a9" stroke-miterlimit="10" stroke-width="2"/>
    <path id="_4t" data-name="4t" d="M462.66,500.69l49,60.48" transform="translate(1 1)" fill="none" stroke="#a9a9a9" stroke-miterlimit="10" stroke-width="2"/>
    <path id="_5t" data-name="5t" d="M413.65,520.91l50.2,61.7" transform="translate(1 1)" fill="none" stroke="#a9a9a9" stroke-miterlimit="10" stroke-width="2"/>
    <path id="_6t" data-name="6t" d="M366.59,540l51.3,63.22" transform="translate(1 1)" fill="none" stroke="#a9a9a9" stroke-miterlimit="10" stroke-width="2"/>
    <path id="_7t" data-name="7t" d="M322.24,558l51.86,64.47" transform="translate(1 1)" fill="none" stroke="#a9a9a9" stroke-miterlimit="10" stroke-width="2"/>
    <path id="_8t" data-name="8t" d="M279.14,574.89l53.5,66.55" transform="translate(1 1)" fill="none" stroke="#a9a9a9" stroke-miterlimit="10" stroke-width="2"/>
    <path id="_9t" data-name="9t" d="M239.46,591.6l54.34,67.26" transform="translate(1 1)" fill="none" stroke="#a9a9a9" stroke-miterlimit="10" stroke-width="2"/>
    <path id="_10t" data-name="10t" d="M201.93,607.82l54.34,67.25" transform="translate(1 1)" fill="none" stroke="#a9a9a9" stroke-miterlimit="10" stroke-width="2"/>
    <path id="_11t" data-name="11t" d="M165.14,622.51l56.29,68.8" transform="translate(1 1)" fill="none" stroke="#a9a9a9" stroke-miterlimit="10" stroke-width="2"/>
    <path id="_12t" data-name="12t" d="M130.4,636.61l57.81,69.59" transform="translate(1 1)" fill="none" stroke="#a9a9a9" stroke-miterlimit="10" stroke-width="2"/>
    <path id="_13t" data-name="13t" d="M97.68,650.32l57.81,70.55" transform="translate(1 1)" fill="none" stroke="#a9a9a9" stroke-miterlimit="10" stroke-width="2"/>
  </g>
  <path id="_6" data-name="6" d="M65.49,671.4,691.43,412.71" transform="translate(1 1)" fill="none" stroke="#d3d1d1" stroke-miterlimit="10" stroke-width="1"/>
  <path id="_5" data-name="5" d="M74.82,682.57,698.44,421.3" transform="translate(1 1)" fill="none" stroke="#d3d1d1" stroke-miterlimit="10" stroke-width="1"/>
  <path id="_4" data-name="4" d="M85.3,695.09,706.05,430.64" transform="translate(1 1)" fill="none" stroke="#d3d1d1" stroke-miterlimit="10" stroke-width="1"/>
  <path id="_3" data-name="3" d="M96.38,708.34,714,440.41" transform="translate(1 1)" fill="none" stroke="#d3d1d1" stroke-miterlimit="10" stroke-width="1"/>
  <path id="_2" data-name="2" d="M106.86,720.87,721.77,449.92" transform="translate(1 1)" fill="none" stroke="#d3d1d1" stroke-miterlimit="10" stroke-width="1"/>
  <path id="_1" data-name="1" d="M115.9,731.69,728,457.58" transform="translate(1 1)" fill="none" stroke="#d3d1d1" stroke-miterlimit="10" stroke-width="1"/>
  <g id="cuerpo">
    <path id="Clavijero" d="M870.61,311.36c-27.79,13.28-31.67,14.95-32.89,13.63-.85-.79-2.55-2.46-3.76-3.69-5.82-5.72-7.16-6.78-10.8-7.92-7-2.11-14.44.88-15.9,6.42-1.45,5.81,5.71,12.85,13.35,12.93,5.34.09,5.22.18-12.86,8.71l-14.32,6.69-1.82-2.55c-1.09-1.5-2.31-2.64-2.79-2.64s-1.58-1.23-2.55-2.73c-2.91-4.84-12.38-7.48-18.45-5.19-2.91,1.14-5.94,5.37-5.94,8.36,0,5.54,7.16,11,14.44,11,4.12,0,3.64.35-10.68,7.12-8.25,3.87-15,6.95-15.17,6.78-10.8-12-12.86-13.46-20.51-13.46-8.86,0-13.59,7.74-8.86,14.42,2.55,3.52,5.22,4.84,11.17,5.37l5.34.44-17,7.92c-9.35,4.31-17,8.53-17,9.23,0,1.76-5.83,10.65-8.13,12.5-1.7,1.4-.12,3.6,19.17,27.27l21,25.78,8.61-.27c4.61-.17,9.83.09,11.53.53,2.55.7,5,.09,15.78-4,7-2.73,15-5.89,18-7l5.21-2.2-1.82,2.73c-2.42,3.26-2.42,5.46-.24,9.33,3.52,6,14.56,8.44,20.75,4.57,5.22-3.25,5.34-7.74.25-15.13-3.28-4.66-4-6.42-2.92-7.13.85-.52,7.89-3.43,15.78-6.33,10.92-4.14,13.83-4.93,12.38-3.52-2.55,2.73-2.31,8.53.48,11.61,5,5.37,14.44,6.6,20,2.64a8.56,8.56,0,0,0,.6-13c-1.33-1.23-2.18-2.29-1.7-2.29s-.36-1.32-1.7-3l-2.54-3,16.38-6.24c9-3.44,16.62-6.25,17-6.25s-.24,1-1.34,2.2c-5.22,5.81,2.67,15.39,12.75,15.39,5.94,0,10.67-2.63,11.77-6.59.6-2.38-.25-4.4-3.64-9.77-2.43-3.69-4.13-6.95-3.77-7.3s15.42-6.16,33.13-12.93c36.29-13.9,36.29-13.9,37.5-24,1.46-11.35-5.46-31.58-14-41.08-13-14.43-37.14-27.89-52.19-29C902,296.22,901.8,296.31,870.61,311.36Zm.61,19.17c3.64,2.64,4.37,5.19,2.3,7.92-1,1.41-15.53,8.89-17.23,8.89-.49,0-2.91-2.73-5.58-6L846,335.28l7.88-3.6c4.37-2,9.35-3.7,10.92-3.7A13.79,13.79,0,0,1,871.22,330.53ZM839.91,346.9a60.006,60.006,0,0,1,4.49,6.1c0,.61-32.89,16.63-33.37,16.19-.13-.18-2.67-3-5.47-6.34-3.88-4.75-4.73-6.25-3.39-6.77.85-.44,8.13-3.87,16.14-7.74s15.17-7,15.77-7S837.36,343.73,839.91,346.9Zm-45.15,21.64c2.92,3.52,4.62,6.51,4,6.86s-7.77,4-15.78,7.83l-14.68,7.13-5.3-6.69c-4.85-6.16-5.1-6.77-3-7.65,1.09-.53,7.88-3.79,15-7.3s13.35-6.34,13.84-6.34,3.16,2.73,5.92,6.16ZM911,378.66c3,2.81,3.28,6.24.61,9-1.94,2.11-16,7.65-17.11,6.86s-9.95-11.52-9.71-11.61,4-1.58,8.61-3.34C903.5,375.75,907.62,375.49,911,378.66ZM748.65,385c1,1.32,3.4,4.22,5.22,6.51l3.4,4.14-4.13,1.84c-5.7,2.47-10.19,2.29-14.44-.79-5-3.69-4.61-6.6,1.33-10.82,2.8-1.85,5.34-3.34,5.83-3.34S747.56,383.58,748.65,385Zm127.18,5.9c1.45,1.67,3.64,4.39,5,6l2.31,2.9-17.35,6.77c-9.59,3.7-17.84,6.78-18.21,6.78-1.33,0-10.92-12.67-9.83-12.93.73-.18,8.38-3,17-6.34s16.39-6.16,17.23-6.16,2.51,1.29,3.85,2.97Zm-46,20.49a64.016,64.016,0,0,1,4.85,6.51c0,.62-31.19,13-32.52,13-.49,0-3.16-2.9-5.83-6.42l-5.09-6.33,16.62-6.34c9.1-3.52,16.63-6.42,16.75-6.42s2.39,2.74,5.23,5.99ZM784.56,428.9c2.55,3.34,4.73,6.25,5,6.6.72,1.14-6.92,3.34-11.65,3.34-7.28,0-11.9-5.28-8.74-9.85,1.7-2.38,7.28-6,9.34-6,.72.01,3.49,2.65,6.06,5.9Z" transform="translate(1 1)" fill="none" stroke="#a9a9a9" stroke-miterlimit="10" stroke-width="3"/>
    <path id="Cuerpo-2" data-name="Cuerpo" d="M730.62,460.54l-5.4,6.33L121.12,737.73,61.31,666.22l619-253.61,10.01-1.49Z" fill="none" stroke="#a9a9a9" stroke-miterlimit="10" stroke-width="3"/>
  </g>
  <g id="sobreClavijero">
    <path id="Path_14" data-name="Path 14" d="M696.88,409.51l65.76-28.73h0" transform="translate(1 1)" fill="none" stroke="#e2e0e0" stroke-miterlimit="10" stroke-width="0.5"/>
    <path id="Path_15" data-name="Path 15" d="M704.39,419.28l104-55.47" transform="translate(1 1)" fill="none" stroke="#e2e0e0" stroke-miterlimit="10" stroke-width="0.5"/>
    <path id="Path_16" data-name="Path 16" d="M711.57,428.17,852,340.53" transform="translate(1 1)" fill="none" stroke="#e2e0e0" stroke-miterlimit="10" stroke-width="0.5"/>
    <path id="Path_17" data-name="Path 17" d="M719.72,438.16l171.81-49.25" transform="translate(1 1)" fill="none" stroke="#e2e0e0" stroke-miterlimit="10" stroke-width="0.5"/>
    <path id="Path_18" data-name="Path 18" d="M728,448.36l115-42.27" transform="translate(1 1)" fill="none" stroke="#e2e0e0" stroke-miterlimit="10" stroke-width="0.5"/>
    <path id="Path_19" data-name="Path 19" d="M733.52,455.12l67.05-27.76" transform="translate(1 1)" fill="none" stroke="#e2e0e0" stroke-miterlimit="10" stroke-width="0.5"/>
  </g>
</svg>
